<svg aria-hidden="true" style="position: absolute; width: 0; height: 0; overflow: hidden;" version="1.1" xmlns="http://www.w3.org/2000/svg" xmlns:xlink="http://www.w3.org/1999/xlink">
<defs>
<symbol id="icon-x" viewBox="0 0 24 24">
<path d="M5.293 6.707l5.293 5.293-5.293 5.293c-0.391 0.391-0.391 1.024 0 1.414s1.024 0.391 1.414 0l5.293-5.293 5.293 5.293c0.391 0.391 1.024 0.391 1.414 0s0.391-1.024 0-1.414l-5.293-5.293 5.293-5.293c0.391-0.391 0.391-1.024 0-1.414s-1.024-0.391-1.414 0l-5.293 5.293-5.293-5.293c-0.391-0.391-1.024-0.391-1.414 0s-0.391 1.024 0 1.414z"></path>
</symbol>
<symbol id="icon-network" viewBox="0 0 20 20">
<path d="M10 20c-5.523 0-10-4.477-10-10s4.477-10 10-10v0c5.523 0 10 4.477 10 10s-4.477 10-10 10v0zM17.75 12c0.161-0.6 0.254-1.289 0.254-2s-0.093-1.4-0.266-2.056l0.013 0.056h-3.82c0.044 0.598 0.070 1.296 0.070 2s-0.025 1.402-0.075 2.093l0.005-0.093h3.82zM16.93 14h-3.22c-0.186 1.31-0.518 2.493-0.985 3.605l0.035-0.095c1.782-0.67 3.226-1.9 4.15-3.472l0.020-0.038zM8.080 12h3.84c0.052-0.599 0.081-1.296 0.081-2s-0.030-1.401-0.088-2.090l0.006 0.090h-3.84c-0.052 0.599-0.081 1.296-0.081 2s0.030 1.401 0.088 2.090l-0.006-0.090zM8.33 14c0.41 2.4 1.13 4 1.67 4s1.26-1.6 1.67-4h-3.34zM2.25 12h3.82c-0.044-0.598-0.070-1.296-0.070-2s0.025-1.402 0.075-2.093l-0.005 0.093h-3.82c-0.161 0.6-0.254 1.289-0.254 2s0.093 1.4 0.266 2.056l-0.013-0.056zM3.070 14c0.944 1.61 2.388 2.84 4.115 3.492l0.055 0.018c-0.42-0.96-0.74-2.16-0.95-3.51h-3.22zM16.93 6c-0.944-1.61-2.388-2.84-4.115-3.492l-0.055-0.018c0.42 0.96 0.74 2.16 0.95 3.51h3.22zM8.33 6h3.34c-0.41-2.4-1.13-4-1.67-4s-1.26 1.6-1.67 4zM3.070 6h3.22c0.2-1.35 0.53-2.55 0.95-3.51-1.782 0.67-3.226 1.9-4.15 3.472l-0.020 0.038z"></path>
</symbol>
<symbol id="icon-search" viewBox="0 0 20 20">
<path d="M12.9 14.32c-1.34 1.049-3.050 1.682-4.908 1.682-4.418 0-8-3.582-8-8s3.582-8 8-8c4.418 0 8 3.582 8 8 0 1.858-0.633 3.567-1.695 4.925l0.013-0.018 5.35 5.33-1.42 1.42-5.33-5.34zM8 14c3.314 0 6-2.686 6-6s-2.686-6-6-6v0c-3.314 0-6 2.686-6 6s2.686 6 6 6v0z"></path>
</symbol>
<symbol id="icon-minus" viewBox="0 0 20 20">
<path d="M16 10c0 0.553-0.048 1-0.601 1h-10.798c-0.552 0-0.601-0.447-0.601-1s0.049-1 0.601-1h10.799c0.552 0 0.6 0.447 0.6 1z"></path>
</symbol>
<symbol id="icon-plus" viewBox="0 0 20 20">
<path d="M16 10c0 0.553-0.048 1-0.601 1h-4.399v4.399c0 0.552-0.447 0.601-1 0.601s-1-0.049-1-0.601v-4.399h-4.399c-0.552 0-0.601-0.447-0.601-1s0.049-1 0.601-1h4.399v-4.399c0-0.553 0.447-0.601 1-0.601s1 0.048 1 0.601v4.399h4.399c0.553 0 0.601 0.447 0.601 1z"></path>
</symbol>
<symbol id="icon-instagram" viewBox="0 0 20 20">
<path d="M17 1h-14c-1.1 0-2 0.9-2 2v14c0 1.101 0.9 2 2 2h14c1.1 0 2-0.899 2-2v-14c0-1.1-0.9-2-2-2zM9.984 15.523c3.059 0 5.538-2.481 5.538-5.539 0-0.338-0.043-0.664-0.103-0.984h1.581v7.216c0 0.382-0.31 0.69-0.693 0.69h-12.614c-0.383 0-0.693-0.308-0.693-0.69v-7.216h1.549c-0.061 0.32-0.104 0.646-0.104 0.984 0 3.059 2.481 5.539 5.539 5.539zM6.523 9.984c0-1.912 1.55-3.461 3.462-3.461s3.462 1.549 3.462 3.461-1.551 3.462-3.462 3.462c-1.913 0-3.462-1.55-3.462-3.462zM16.307 6h-1.615c-0.382 0-0.692-0.312-0.692-0.692v-1.617c0-0.382 0.31-0.691 0.691-0.691h1.615c0.384 0 0.694 0.309 0.694 0.691v1.616c0 0.381-0.31 0.693-0.693 0.693z"></path>
</symbol>
<symbol id="icon-bars" viewBox="0 0 24 28">
<path d="M24 21v2c0 0.547-0.453 1-1 1h-22c-0.547 0-1-0.453-1-1v-2c0-0.547 0.453-1 1-1h22c0.547 0 1 0.453 1 1zM24 13v2c0 0.547-0.453 1-1 1h-22c-0.547 0-1-0.453-1-1v-2c0-0.547 0.453-1 1-1h22c0.547 0 1 0.453 1 1zM24 5v2c0 0.547-0.453 1-1 1h-22c-0.547 0-1-0.453-1-1v-2c0-0.547 0.453-1 1-1h22c0.547 0 1 0.453 1 1z"></path>
</symbol>
<symbol id="icon-user-circle" viewBox="0 0 28 28">
<path d="M23.797 20.922c-0.406-2.922-1.594-5.516-4.25-5.875-1.375 1.5-3.359 2.453-5.547 2.453s-4.172-0.953-5.547-2.453c-2.656 0.359-3.844 2.953-4.25 5.875 2.172 3.063 5.75 5.078 9.797 5.078s7.625-2.016 9.797-5.078zM20 10c0-3.313-2.688-6-6-6s-6 2.688-6 6 2.688 6 6 6 6-2.688 6-6zM28 14c0 7.703-6.25 14-14 14-7.734 0-14-6.281-14-14 0-7.734 6.266-14 14-14s14 6.266 14 14z"></path>
</symbol>
<symbol id="icon-facebook" viewBox="0 0 32 32">
<path d="M19 6h5v-6h-5c-3.86 0-7 3.14-7 7v3h-4v6h4v16h6v-16h5l1-6h-6v-3c0-0.542 0.458-1 1-1z"></path>
</symbol>
<symbol id="icon-twitter" viewBox="0 0 32 32">
<path d="M32 7.075c-1.175 0.525-2.444 0.875-3.769 1.031 1.356-0.813 2.394-2.1 2.887-3.631-1.269 0.75-2.675 1.3-4.169 1.594-1.2-1.275-2.906-2.069-4.794-2.069-3.625 0-6.563 2.938-6.563 6.563 0 0.512 0.056 1.012 0.169 1.494-5.456-0.275-10.294-2.888-13.531-6.862-0.563 0.969-0.887 2.1-0.887 3.3 0 2.275 1.156 4.287 2.919 5.463-1.075-0.031-2.087-0.331-2.975-0.819 0 0.025 0 0.056 0 0.081 0 3.181 2.263 5.838 5.269 6.437-0.55 0.15-1.131 0.231-1.731 0.231-0.425 0-0.831-0.044-1.237-0.119 0.838 2.606 3.263 4.506 6.131 4.563-2.25 1.762-5.075 2.813-8.156 2.813-0.531 0-1.050-0.031-1.569-0.094 2.913 1.869 6.362 2.95 10.069 2.95 12.075 0 18.681-10.006 18.681-18.681 0-0.287-0.006-0.569-0.019-0.85 1.281-0.919 2.394-2.075 3.275-3.394z"></path>
</symbol>
</defs>
</svg>
